<svg id="Layer_1" data-name="Layer 1" xmlns="http://www.w3.org/2000/svg" viewBox="0 0 93.84 90.03"><path d="M46.84,9a8,8,0,0,0-8,8V44.52c-1.24-2.67-3.46-5.57-6.25-6.28-3.79-1-8.44,2-9.5,5.53-.54,2-.19,4.21.88,6.94C29.16,63.2,35.56,75.2,43.34,84.31a2,2,0,0,0,1.5.68h27a2,2,0,0,0,1.19-.4c2.88-2.14,5.2-5.77,7.12-10.1a57.49,57.49,0,0,0,4.16-14.25A33.82,33.82,0,0,0,84,46.68c-1-3.93-3.81-7.2-7.94-7.69a13.34,13.34,0,0,0-2.88.28,6.67,6.67,0,0,0-2.12-2.9A7.16,7.16,0,0,0,66.81,35a5.71,5.71,0,0,0-3.22,1.13,6.46,6.46,0,0,0-1.44-1.75A7.25,7.25,0,0,0,57.84,33a7.82,7.82,0,0,0-3,.69V17a7.88,7.88,0,0,0-8-8Zm0,4a4,4,0,0,1,4,4V38a2,2,0,0,0,3.81.88A4.3,4.3,0,0,1,57.84,37a3.78,3.78,0,0,1,2,.63,2.45,2.45,0,0,1,1,2.37,2,2,0,0,0,3.78.91c.81-1.63,1.25-1.89,2.25-1.91a4.08,4.08,0,0,1,1.88.63A2.45,2.45,0,0,1,69.84,42a2,2,0,0,0,3.38,1.47A5,5,0,0,1,75.68,43c2.39.31,3.63,1.8,4.47,4.78s.89,7.32.19,11.85A54.25,54.25,0,0,1,76.5,72.87,23.53,23.53,0,0,1,71,81H45.81c-7-8.28-13.72-21-18.09-31.72-.91-2.34-1-3.68-.79-4.43a4.39,4.39,0,0,1,4.6-2.75c2.12.8,2.65,2.22,3.56,3.84l4,8A2,2,0,0,0,42.84,53V17a4,4,0,0,1,4-4Z"/><path d="M2.84,16a1.9,1.9,0,0,1,.56-1.41l9-9a2.06,2.06,0,0,1,2.86,0,2.08,2.08,0,0,1,0,2.85L9.65,14H28.84a2,2,0,1,1,0,4H9.65l5.6,5.59A2,2,0,1,1,12.4,26.4l-9-9A1.92,1.92,0,0,1,2.84,16Z"/></svg>