{
  "accessors": [
    {
      "bufferView": 2,
      "componentType": 5126,
      "count": 1919,
      "max": [
        1.0642929077148438,
        1.0,
        22.159814834594727
      ],
      "min": [
        -1.0642929077148438,
        -1.109229326248169,
        0.07911205291748047
      ],
      "type": "VEC3"
    },
    {
      "bufferView": 2,
      "byteOffset": 23028,
      "componentType": 5126,
      "count": 1919,
      "max": [
        1.0,
        1.0,
        1.0
      ],
      "min": [
        -1.0,
        -1.0,
        -1.0
      ],
      "type": "VEC3"
    },
    {
      "bufferView": 1,
      "componentType": 5126,
      "count": 1919,
      "max": [
        0.4431094825267792,
        0.8684270977973938
      ],
      "min": [
        0.16608263552188873,
        0.702962338924408
      ],
      "type": "VEC2"
    },
    {
      "bufferView": 0,
      "componentType": 5125,
      "count": 4764,
      "type": "SCALAR"
    },
    {
      "bufferView": 2,
      "byteOffset": 46056,
      "componentType": 5126,
      "count": 120,
      "max": [
        1.0,
        1.0,
        4.9358062744140625
      ],
      "min": [
        -1.0,
        -1.002703070640564,
        -2.1617093086242676
      ],
      "type": "VEC3"
    },
    {
      "bufferView": 2,
      "byteOffset": 47496,
      "componentType": 5126,
      "count": 120,
      "max": [
        1.0,
        1.0,
        0.6709949970245361
      ],
      "min": [
        -1.0,
        -1.0,
        -0.37936070561408997
      ],
      "type": "VEC3"
    },
    {
      "bufferView": 1,
      "byteOffset": 15352,
      "componentType": 5126,
      "count": 120,
      "max": [
        0.587109386920929,
        0.740875244140625
      ],
      "min": [
        0.3928416967391968,
        0.6908569931983948
      ],
      "type": "VEC2"
    },
    {
      "bufferView": 0,
      "byteOffset": 19056,
      "componentType": 5125,
      "count": 276,
      "type": "SCALAR"
    }
  ],
  "asset": {
    "extras": {
      "author": "A.S.D. (https://sketchfab.com/arvindsudarshan53)",
      "license": "CC-BY-4.0 (http://creativecommons.org/licenses/by/4.0/)",
      "source": "https://sketchfab.com/3d-models/low-poly-building-f0722265cf8d4a41ba78ab1587d18ac8",
      "title": "Low Poly Building"
    },
    "generator": "Sketchfab-11.17.0",
    "version": "2.0"
  },
  "bufferViews": [
    {
      "buffer": 0,
      "byteLength": 20160,
      "name": "floatBufferViews",
      "target": 34963
    },
    {
      "buffer": 0,
      "byteLength": 16312,
      "byteOffset": 20160,
      "byteStride": 8,
      "name": "floatBufferViews",
      "target": 34962
    },
    {
      "buffer": 0,
      "byteLength": 48936,
      "byteOffset": 36472,
      "byteStride": 12,
      "name": "floatBufferViews",
      "target": 34962
    }
  ],
  "buffers": [
    {
      "byteLength": 85408,
      "uri": "scene.bin"
    }
  ],
  "images": [
    {
      "uri": "textures/Material_baseColor.png"
    }
  ],
  "materials": [
    {
      "doubleSided": true,
      "name": "Material",
      "pbrMetallicRoughness": {
        "baseColorTexture": {
          "index": 0
        },
        "metallicFactor": 0.0,
        "roughnessFactor": 0.8040408205773457
      }
    },
    {
      "doubleSided": true,
      "name": "Material.002",
      "pbrMetallicRoughness": {
        "baseColorTexture": {
          "index": 0
        },
        "metallicFactor": 0.0,
        "roughnessFactor": 0.8040408205773457
      }
    }
  ],
  "meshes": [
    {
      "name": "Cube.002_Material_0",
      "primitives": [
        {
          "attributes": {
            "NORMAL": 1,
            "POSITION": 0,
            "TEXCOORD_0": 2
          },
          "indices": 3,
          "material": 0,
          "mode": 4
        }
      ]
    },
    {
      "name": "Cube.003_Material.002_0",
      "primitives": [
        {
          "attributes": {
            "NORMAL": 5,
            "POSITION": 4,
            "TEXCOORD_0": 6
          },
          "indices": 7,
          "material": 1,
          "mode": 4
        }
      ]
    }
  ],
  "nodes": [
    {
      "children": [
        1
      ],
      "matrix": [
        1.0,
        0.0,
        0.0,
        0.0,
        0.0,
        2.220446049250313e-16,
        -1.0,
        0.0,
        0.0,
        1.0,
        2.220446049250313e-16,
        0.0,
        0.0,
        0.0,
        0.0,
        1.0
      ],
      "name": "Sketchfab_model"
    },
    {
      "children": [
        2
      ],
      "matrix": [
        1.0,
        0.0,
        0.0,
        0.0,
        0.0,
        0.0,
        1.0,
        0.0,
        0.0,
        -1.0,
        0.0,
        0.0,
        0.0,
        0.0,
        0.0,
        1.0
      ],
      "name": "LowPolyBuilding.fbx"
    },
    {
      "children": [
        3,
        5
      ],
      "name": "RootNode"
    },
    {
      "children": [
        4
      ],
      "matrix": [
        3.8941437718875704e-07,
        -2.220446049250313e-16,
        -1.9999999999999623,
        0.0,
        -2.42566394805899,
        4.7229420780132447e-07,
        -4.7229420793597587e-07,
        0.0,
        5.500341692077905e-08,
        0.28249299526214067,
        1.0663427739602231e-14,
        0.0,
        -0.892124593257904,
        0.0,
        3.6955583095550537,
        1.0
      ],
      "name": "Cube.002"
    },
    {
      "mesh": 0,
      "name": "Cube.002_Material_0"
    },
    {
      "children": [
        6
      ],
      "matrix": [
        1.9470718859437852e-07,
        -1.1102230246251565e-16,
        -0.9999999999999811,
        0.0,
        -0.3981342315673677,
        7.751959691166838e-08,
        -7.751959693376927e-08,
        0.0,
        1.188210069752506e-08,
        0.06102548539638404,
        2.303564565183765e-15,
        0.0,
        1.8712403774261475,
        1.4859024286270142,
        3.663377285003662,
        1.0
      ],
      "name": "Cube.003"
    },
    {
      "mesh": 1,
      "name": "Cube.003_Material.002_0"
    }
  ],
  "samplers": [
    {
      "magFilter": 9729,
      "minFilter": 9987,
      "wrapS": 10497,
      "wrapT": 10497
    }
  ],
  "scene": 0,
  "scenes": [
    {
      "name": "Sketchfab_Scene",
      "nodes": [
        0
      ]
    }
  ],
  "textures": [
    {
      "sampler": 0,
      "source": 0
    }
  ]
}
