{"asset":{"version":"2.0","generator":"VECTARY"},"nodes":[{"translation":[0,-7.105427357601002e-18,7.105427357600999e-18],"scale":[0.001,0.001,0.001],"rotation":[-0.7071067811865475,0,0,0.7071067811865476],"name":"drone","children":[1,2,3,4,5]},{"translation":[47.95165252685547,47.669398067530686,62.8353306213438],"scale":[100,99.99999999999999,99.99999999999999],"rotation":[-8.146033977632179e-8,0,0,0.9999999999999967],"name":"Wing1","mesh":0},{"translation":[-47.95165252685547,47.669398067530686,62.8353306213438],"scale":[100,99.99999999999999,99.99999999999999],"rotation":[-8.146033977632179e-8,0,0,0.9999999999999967],"name":"Wing2","mesh":1},{"translation":[-47.95165252685547,-47.66940045541854,62.8353306213438],"scale":[24.32193374633789,24.321933746337887,24.321933746337887],"rotation":[-8.146033977632178e-8,0,0,0.9999999999999967],"name":"Wing3","mesh":2},{"translation":[0,-0.0000011939439261254848,42.556272164922895],"scale":[24.32193374633789,24.321933746337887,24.321933746337887],"rotation":[-8.146033977632178e-8,0,0,0.9999999999999967],"name":"MainBody","mesh":3},{"translation":[47.95165252685547,-47.66940045541855,62.8353306213438],"scale":[24.32193374633789,24.321933746337887,24.321933746337887],"rotation":[-8.146033977632178e-8,0,0,0.9999999999999967],"name":"Wing4","mesh":4},{"translation":[-0.10368863272126398,0.25903338000776477,-0.3434803956879096],"scale":[1,1,1],"rotation":[-0.03448671707828077,-0.9530612872611104,-0.2762828370255991,0.11896488151737977],"name":"Camera","camera":0}],"materials":[{"pbrMetallicRoughness":{"baseColorFactor":[0.023103556157921437,0.023103556157921437,0.023103556157921437,1],"metallicFactor":0,"roughnessFactor":0.7},"name":"Black","emissiveFactor":[0,0,0],"alphaMode":"OPAQUE","doubleSided":false},{"pbrMetallicRoughness":{"baseColorFactor":[1,1,1,1],"metallicFactor":0,"roughnessFactor":0.7},"name":"Body","emissiveFactor":[0,0,0],"alphaMode":"OPAQUE","doubleSided":false}],"meshes":[{"primitives":[{"mode":4,"attributes":{"POSITION":1,"NORMAL":2},"material":0,"indices":0}]},{"primitives":[{"mode":4,"attributes":{"POSITION":4,"NORMAL":5},"material":0,"indices":3}]},{"primitives":[{"mode":4,"attributes":{"POSITION":7,"NORMAL":8},"material":0,"indices":6}]},{"primitives":[{"mode":4,"attributes":{"POSITION":10,"NORMAL":11},"material":1,"indices":9}]},{"primitives":[{"mode":4,"attributes":{"POSITION":13,"NORMAL":14},"material":0,"indices":12}]}],"accessors":[{"bufferView":0,"byteOffset":0,"componentType":5125,"count":204,"type":"SCALAR"},{"bufferView":1,"byteOffset":0,"componentType":5126,"count":82,"max":[0.33138561248779297,0.33815205097198486,0.02108684740960598],"min":[-0.3313858211040497,-0.3381519615650177,-0.03400702401995659],"type":"VEC3"},{"bufferView":2,"byteOffset":0,"componentType":5126,"count":82,"type":"VEC3"},{"bufferView":3,"byteOffset":0,"componentType":5125,"count":204,"type":"SCALAR"},{"bufferView":4,"byteOffset":0,"componentType":5126,"count":82,"max":[0.3313858211040497,0.33815205097198486,0.02108684740960598],"min":[-0.33138561248779297,-0.3381519615650177,-0.03400702401995659],"type":"VEC3"},{"bufferView":5,"byteOffset":0,"componentType":5126,"count":82,"type":"VEC3"},{"bufferView":6,"byteOffset":0,"componentType":5125,"count":204,"type":"SCALAR"},{"bufferView":7,"byteOffset":0,"componentType":5126,"count":82,"max":[1.3624978065490723,1.3903168439865112,0.08669888973236084],"min":[-1.3624969720840454,-1.3903172016143799,-0.139820396900177],"type":"VEC3"},{"bufferView":8,"byteOffset":0,"componentType":5126,"count":82,"type":"VEC3"},{"bufferView":9,"byteOffset":0,"componentType":5125,"count":5424,"type":"SCALAR"},{"bufferView":10,"byteOffset":0,"componentType":5126,"count":2210,"max":[2.2894086837768555,2.2824697494506836,0.7770230770111084],"min":[-2.2894086837768555,-2.2824697494506836,-1.7497074604034424],"type":"VEC3"},{"bufferView":11,"byteOffset":0,"componentType":5126,"count":2210,"type":"VEC3"},{"bufferView":12,"byteOffset":0,"componentType":5125,"count":204,"type":"SCALAR"},{"bufferView":13,"byteOffset":0,"componentType":5126,"count":82,"max":[1.3624969720840454,1.3903168439865112,0.08669888973236084],"min":[-1.3624978065490723,-1.3903172016143799,-0.139820396900177],"type":"VEC3"},{"bufferView":14,"byteOffset":0,"componentType":5126,"count":82,"type":"VEC3"}],"bufferViews":[{"buffer":0,"byteOffset":0,"byteLength":816,"target":34963},{"buffer":0,"byteOffset":816,"byteLength":984,"target":34962},{"buffer":0,"byteOffset":1800,"byteLength":984,"target":34962},{"buffer":0,"byteOffset":2784,"byteLength":816,"target":34963},{"buffer":0,"byteOffset":3600,"byteLength":984,"target":34962},{"buffer":0,"byteOffset":4584,"byteLength":984,"target":34962},{"buffer":0,"byteOffset":5568,"byteLength":816,"target":34963},{"buffer":0,"byteOffset":6384,"byteLength":984,"target":34962},{"buffer":0,"byteOffset":7368,"byteLength":984,"target":34962},{"buffer":0,"byteOffset":8352,"byteLength":21696,"target":34963},{"buffer":0,"byteOffset":30048,"byteLength":26520,"target":34962},{"buffer":0,"byteOffset":56568,"byteLength":26520,"target":34962},{"buffer":0,"byteOffset":83088,"byteLength":816,"target":34963},{"buffer":0,"byteOffset":83904,"byteLength":984,"target":34962},{"buffer":0,"byteOffset":84888,"byteLength":984,"target":34962}],"cameras":[{"name":"Camera","type":"perspective","extras":{"targetDistance":0.4139004687774859},"perspective":{"aspectRatio":0.6349206349206349,"yfov":0.6108652381980153,"zfar":35.691786992243685,"znear":0.002610472875519747}}],"scene":0,"scenes":[{"nodes":[0,6],"name":"drone"}],"extensionsUsed":["KHR_texture_transform"],"buffers":[{"byteLength":85872,"uri":"drone.bin"}]}