{
  "accessors": [
    {
      "bufferView": 2,
      "componentType": 5126,
      "count": 816,
      "max": [
        0.43710726499557495,
        -0.33619320392608643,
        0.37661480903625488
      ],
      "min": [
        -0.43710726499557495,
        -1.369071364402771,
        -0.30000004172325134
      ],
      "type": "VEC3"
    },
    {
      "bufferView": 2,
      "byteOffset": 9792,
      "componentType": 5126,
      "count": 816,
      "max": [
        0.99410730600357056,
        1,
        1
      ],
      "min": [
        -0.99410730600357056,
        -0.99199342727661133,
        -1
      ],
      "type": "VEC3"
    },
    {
      "bufferView": 1,
      "componentType": 5126,
      "count": 816,
      "max": [
        0.75,
        0.875
      ],
      "min": [
        0.25,
        0.375
      ],
      "type": "VEC2"
    },
    {
      "bufferView": 0,
      "componentType": 5125,
      "count": 1212,
      "max": [
        815
      ],
      "min": [
        0
      ],
      "type": "SCALAR"
    },
    {
      "bufferView": 2,
      "byteOffset": 19584,
      "componentType": 5126,
      "count": 48,
      "max": [
        0.29231041669845581,
        -0.7482914924621582,
        0.36384549736976624
      ],
      "min": [
        -0.29231041669845581,
        -1.0172189474105835,
        0.3521638810634613
      ],
      "type": "VEC3"
    },
    {
      "bufferView": 2,
      "byteOffset": 20160,
      "componentType": 5126,
      "count": 48,
      "max": [
        0.67274624109268188,
        0.79981893301010132,
        0.74221634864807129
      ],
      "min": [
        -0.67274624109268188,
        -0.66994059085845947,
        0.58483105897903442
      ],
      "type": "VEC3"
    },
    {
      "bufferView": 1,
      "byteOffset": 6528,
      "componentType": 5126,
      "count": 48,
      "max": [
        0.50664716958999634,
        0.875
      ],
      "min": [
        0.42224454879760742,
        0.78978067636489868
      ],
      "type": "VEC2"
    },
    {
      "bufferView": 0,
      "byteOffset": 4848,
      "componentType": 5125,
      "count": 72,
      "max": [
        47
      ],
      "min": [
        0
      ],
      "type": "SCALAR"
    },
    {
      "bufferView": 2,
      "byteOffset": 20736,
      "componentType": 5126,
      "count": 1024,
      "max": [
        0.13599996268749237,
        0.37599998712539673,
        0.3760000467300415
      ],
      "min": [
        -0.13600008189678192,
        -0.3760000467300415,
        -0.3760000467300415
      ],
      "type": "VEC3"
    },
    {
      "bufferView": 2,
      "byteOffset": 33024,
      "componentType": 5126,
      "count": 1024,
      "max": [
        0.98004776239395142,
        0.96263736486434937,
        0.96263736486434937
      ],
      "min": [
        -0.98004776239395142,
        -0.96263730525970459,
        -0.96263736486434937
      ],
      "type": "VEC3"
    },
    {
      "bufferView": 1,
      "byteOffset": 6912,
      "componentType": 5126,
      "count": 1024,
      "max": [
        1,
        1
      ],
      "min": [
        0,
        0
      ],
      "type": "VEC2"
    },
    {
      "bufferView": 0,
      "byteOffset": 5136,
      "componentType": 5125,
      "count": 1536,
      "max": [
        1023
      ],
      "min": [
        0
      ],
      "type": "SCALAR"
    },
    {
      "bufferView": 2,
      "byteOffset": 45312,
      "componentType": 5126,
      "count": 608,
      "max": [
        0.89435380697250366,
        -0.35395875573158264,
        0.16238507628440857
      ],
      "min": [
        -0.89435380697250366,
        -1.2305812835693359,
        -0.16238519549369812
      ],
      "type": "VEC3"
    },
    {
      "bufferView": 2,
      "byteOffset": 52608,
      "componentType": 5126,
      "count": 608,
      "max": [
        0.97734540700912476,
        0.90630799531936646,
        1
      ],
      "min": [
        -0.97734540700912476,
        -0.9599233865737915,
        -1
      ],
      "type": "VEC3"
    },
    {
      "bufferView": 1,
      "byteOffset": 15104,
      "componentType": 5126,
      "count": 608,
      "max": [
        0.875,
        1
      ],
      "min": [
        0.125,
        0
      ],
      "type": "VEC2"
    },
    {
      "bufferView": 0,
      "byteOffset": 11280,
      "componentType": 5125,
      "count": 912,
      "max": [
        607
      ],
      "min": [
        0
      ],
      "type": "SCALAR"
    },
    {
      "bufferView": 2,
      "byteOffset": 59904,
      "componentType": 5126,
      "count": 480,
      "max": [
        0.97556513547897339,
        -0.56065571308135986,
        0.080451138317584991
      ],
      "min": [
        -0.97556513547897339,
        -1.4586098194122314,
        -0.080451346933841705
      ],
      "type": "VEC3"
    },
    {
      "bufferView": 2,
      "byteOffset": 65664,
      "componentType": 5126,
      "count": 480,
      "max": [
        0.98906689882278442,
        0.8715175986289978,
        1
      ],
      "min": [
        -0.98906689882278442,
        -0.93621605634689331,
        -1
      ],
      "type": "VEC3"
    },
    {
      "bufferView": 1,
      "byteOffset": 19968,
      "componentType": 5126,
      "count": 480,
      "max": [
        0.58996009826660156,
        0.71495997905731201
      ],
      "min": [
        0.4100399911403656,
        0.53504002094268799
      ],
      "type": "VEC2"
    },
    {
      "bufferView": 0,
      "byteOffset": 14928,
      "componentType": 5125,
      "count": 720,
      "max": [
        479
      ],
      "min": [
        0
      ],
      "type": "SCALAR"
    },
    {
      "bufferView": 2,
      "byteOffset": 71424,
      "componentType": 5126,
      "count": 416,
      "max": [
        1.0556503534317017,
        0.8934473991394043,
        0.25
      ],
      "min": [
        -1.0556503534317017,
        -0.55418658256530762,
        -0.25
      ],
      "type": "VEC3"
    },
    {
      "bufferView": 2,
      "byteOffset": 76416,
      "componentType": 5126,
      "count": 416,
      "max": [
        1,
        0.98796659708023071,
        1
      ],
      "min": [
        -1,
        -0.98796659708023071,
        -1
      ],
      "type": "VEC3"
    },
    {
      "bufferView": 1,
      "byteOffset": 23808,
      "componentType": 5126,
      "count": 416,
      "max": [
        0.75,
        0.875
      ],
      "min": [
        0.25,
        0.375
      ],
      "type": "VEC2"
    },
    {
      "bufferView": 0,
      "byteOffset": 17808,
      "componentType": 5125,
      "count": 624,
      "max": [
        415
      ],
      "min": [
        0
      ],
      "type": "SCALAR"
    },
    {
      "bufferView": 2,
      "byteOffset": 81408,
      "componentType": 5126,
      "count": 200,
      "max": [
        0.99285662174224854,
        0.48308563232421875,
        0.19278018176555634
      ],
      "min": [
        -0.99285662174224854,
        -0.14382480084896088,
        -0.19278018176555634
      ],
      "type": "VEC3"
    },
    {
      "bufferView": 2,
      "byteOffset": 83808,
      "componentType": 5126,
      "count": 200,
      "max": [
        1,
        0.95133084058761597,
        0.98160964250564575
      ],
      "min": [
        -1,
        -0.95133090019226074,
        -0.98160964250564575
      ],
      "type": "VEC3"
    },
    {
      "bufferView": 1,
      "byteOffset": 27136,
      "componentType": 5126,
      "count": 200,
      "max": [
        0.6502300500869751,
        0.76291352510452271
      ],
      "min": [
        0.34977000951766968,
        0.48708653450012207
      ],
      "type": "VEC2"
    },
    {
      "bufferView": 0,
      "byteOffset": 20304,
      "componentType": 5125,
      "count": 312,
      "max": [
        199
      ],
      "min": [
        0
      ],
      "type": "SCALAR"
    },
    {
      "bufferView": 2,
      "byteOffset": 86208,
      "componentType": 5126,
      "count": 88,
      "max": [
        1.0472276210784912,
        0.818023681640625,
        -0.10212253034114838
      ],
      "min": [
        -1.0472276210784912,
        0.66452872753143311,
        -0.18963448703289032
      ],
      "type": "VEC3"
    },
    {
      "bufferView": 2,
      "byteOffset": 87264,
      "componentType": 5126,
      "count": 88,
      "max": [
        1,
        0.67487722635269165,
        0.96592557430267334
      ],
      "min": [
        -1,
        -0.96592563390731812,
        -0.97650527954101562
      ],
      "type": "VEC3"
    },
    {
      "bufferView": 1,
      "byteOffset": 28736,
      "componentType": 5126,
      "count": 88,
      "max": [
        0.59124213457107544,
        0.70432895421981812
      ],
      "min": [
        0.59124213457107544,
        0.54567110538482666
      ],
      "type": "VEC2"
    },
    {
      "bufferView": 0,
      "byteOffset": 21552,
      "componentType": 5125,
      "count": 120,
      "max": [
        87
      ],
      "min": [
        0
      ],
      "type": "SCALAR"
    },
    {
      "bufferView": 2,
      "byteOffset": 88320,
      "componentType": 5126,
      "count": 1984,
      "max": [
        0.75000011920928955,
        0.75,
        0.35000017285346985
      ],
      "min": [
        -0.75000011920928955,
        0.050000011920928955,
        -0.34999999403953552
      ],
      "type": "VEC3"
    },
    {
      "bufferView": 2,
      "byteOffset": 112128,
      "componentType": 5126,
      "count": 1984,
      "max": [
        0.97624117136001587,
        0.99499571323394775,
        0.97624111175537109
      ],
      "min": [
        -0.97624117136001587,
        -0.99499577283859253,
        -0.97624105215072632
      ],
      "type": "VEC3"
    },
    {
      "bufferView": 1,
      "byteOffset": 29440,
      "componentType": 5126,
      "count": 1984,
      "max": [
        1.0000002384185791,
        1
      ],
      "min": [
        0,
        0
      ],
      "type": "VEC2"
    },
    {
      "bufferView": 0,
      "byteOffset": 22032,
      "componentType": 5125,
      "count": 2880,
      "max": [
        1983
      ],
      "min": [
        0
      ],
      "type": "SCALAR"
    },
    {
      "bufferView": 2,
      "byteOffset": 135936,
      "componentType": 5126,
      "count": 4,
      "max": [
        1,
        0,
        1
      ],
      "min": [
        -1,
        0,
        -1
      ],
      "type": "VEC3"
    },
    {
      "bufferView": 2,
      "byteOffset": 135984,
      "componentType": 5126,
      "count": 4,
      "max": [
        0,
        1,
        -0
      ],
      "min": [
        0,
        1,
        -0
      ],
      "type": "VEC3"
    },
    {
      "bufferView": 1,
      "byteOffset": 45312,
      "componentType": 5126,
      "count": 4,
      "max": [
        1,
        1
      ],
      "min": [
        0,
        0
      ],
      "type": "VEC2"
    },
    {
      "bufferView": 0,
      "byteOffset": 33552,
      "componentType": 5125,
      "count": 6,
      "max": [
        3
      ],
      "min": [
        0
      ],
      "type": "SCALAR"
    }
  ],
  "asset": {
    "extras": {
      "author": "SHEEP CODE (https://sketchfab.com/Sheep_Code)",
      "license": "CC-BY-4.0 (http://creativecommons.org/licenses/by/4.0/)",
      "source": "https://sketchfab.com/3d-models/robot-0452e49558a4489bb480ad0364b23c8c",
      "title": "Robot"
    },
    "generator": "Sketchfab-10.3.0",
    "version": "2.0"
  },
  "bufferViews": [
    {
      "buffer": 0,
      "byteLength": 33576,
      "byteOffset": 0,
      "name": "floatBufferViews",
      "target": 34963
    },
    {
      "buffer": 0,
      "byteLength": 45344,
      "byteOffset": 33576,
      "byteStride": 8,
      "name": "floatBufferViews",
      "target": 34962
    },
    {
      "buffer": 0,
      "byteLength": 136032,
      "byteOffset": 78920,
      "byteStride": 12,
      "name": "floatBufferViews",
      "target": 34962
    }
  ],
  "buffers": [
    {
      "byteLength": 214952,
      "uri": "scene.bin"
    }
  ],
  "materials": [
    {
      "alphaMode": "BLEND",
      "doubleSided": true,
      "name": "material_0",
      "pbrMetallicRoughness": {
        "baseColorFactor": [
          1,
          1,
          1,
          0
        ],
        "metallicFactor": 0,
        "roughnessFactor": 1
      }
    },
    {
      "doubleSided": true,
      "name": "Material",
      "pbrMetallicRoughness": {
        "baseColorFactor": [
          0.57170200000000004,
          0.57170200000000004,
          0.57170200000000004,
          1
        ],
        "metallicFactor": 0.5,
        "roughnessFactor": 1
      }
    },
    {
      "doubleSided": true,
      "emissiveFactor": [
        0,
        1,
        1
      ],
      "name": "Material.002",
      "pbrMetallicRoughness": {
        "baseColorFactor": [
          1,
          1,
          1,
          1
        ],
        "metallicFactor": 1,
        "roughnessFactor": 1
      }
    },
    {
      "doubleSided": true,
      "name": "Material.001",
      "pbrMetallicRoughness": {
        "baseColorFactor": [
          0,
          0,
          0,
          1
        ],
        "metallicFactor": 0.5,
        "roughnessFactor": 1
      }
    }
  ],
  "meshes": [
    {
      "primitives": [
        {
          "attributes": {
            "NORMAL": 1,
            "POSITION": 0,
            "TEXCOORD_0": 2
          },
          "indices": 3,
          "material": 1,
          "mode": 4
        }
      ]
    },
    {
      "primitives": [
        {
          "attributes": {
            "NORMAL": 5,
            "POSITION": 4,
            "TEXCOORD_0": 6
          },
          "indices": 7,
          "material": 2,
          "mode": 4
        }
      ]
    },
    {
      "primitives": [
        {
          "attributes": {
            "NORMAL": 9,
            "POSITION": 8,
            "TEXCOORD_0": 10
          },
          "indices": 11,
          "material": 3,
          "mode": 4
        }
      ]
    },
    {
      "primitives": [
        {
          "attributes": {
            "NORMAL": 13,
            "POSITION": 12,
            "TEXCOORD_0": 14
          },
          "indices": 15,
          "material": 3,
          "mode": 4
        }
      ]
    },
    {
      "primitives": [
        {
          "attributes": {
            "NORMAL": 17,
            "POSITION": 16,
            "TEXCOORD_0": 18
          },
          "indices": 19,
          "material": 1,
          "mode": 4
        }
      ]
    },
    {
      "primitives": [
        {
          "attributes": {
            "NORMAL": 21,
            "POSITION": 20,
            "TEXCOORD_0": 22
          },
          "indices": 23,
          "material": 1,
          "mode": 4
        }
      ]
    },
    {
      "primitives": [
        {
          "attributes": {
            "NORMAL": 25,
            "POSITION": 24,
            "TEXCOORD_0": 26
          },
          "indices": 27,
          "material": 3,
          "mode": 4
        }
      ]
    },
    {
      "primitives": [
        {
          "attributes": {
            "NORMAL": 29,
            "POSITION": 28,
            "TEXCOORD_0": 30
          },
          "indices": 31,
          "material": 2,
          "mode": 4
        }
      ]
    },
    {
      "primitives": [
        {
          "attributes": {
            "NORMAL": 33,
            "POSITION": 32,
            "TEXCOORD_0": 34
          },
          "indices": 35,
          "material": 2,
          "mode": 4
        }
      ]
    },
    {
      "primitives": [
        {
          "attributes": {
            "NORMAL": 37,
            "POSITION": 36,
            "TEXCOORD_0": 38
          },
          "indices": 39,
          "material": 0,
          "mode": 4
        }
      ]
    }
  ],
  "nodes": [
    {
      "children": [
        1
      ],
      "name": "RootNode (gltf orientation matrix)",
      "rotation": [
        -0.70710678118654746,
        -0,
        -0,
        0.70710678118654757
      ]
    },
    {
      "children": [
        2
      ],
      "matrix": [
        1,
        -1.6081226229577292e-16,
        2.832769343193999e-16,
        0,
        1.6081226229577292e-16,
        1,
        1.6081226229577292e-16,
        0,
        -2.832769343193999e-16,
        -1.6081226229577292e-16,
        1,
        0,
        -5.5880457596260702e-17,
        -3.1723077940568056e-17,
        0,
        1
      ],
      "name": "RootNode (model correction matrix)"
    },
    {
      "children": [
        3
      ],
      "name": "root"
    },
    {
      "children": [
        4,
        7,
        9,
        12,
        16,
        18
      ],
      "matrix": [
        1,
        0,
        0,
        0,
        0,
        2.2204460492503131e-16,
        1,
        0,
        0,
        -1,
        2.2204460492503131e-16,
        0,
        0,
        0,
        0,
        1
      ],
      "name": "GLTF_SceneRootNode"
    },
    {
      "children": [
        5,
        6
      ],
      "name": "Cube_0"
    },
    {
      "mesh": 0,
      "name": ""
    },
    {
      "mesh": 1,
      "name": ""
    },
    {
      "children": [
        8
      ],
      "matrix": [
        0.80000001192092896,
        0,
        0,
        0,
        0,
        0.5,
        0,
        0,
        0,
        0,
        0.5,
        0,
        0,
        -1.3000000715255737,
        0,
        1
      ],
      "name": "Torus_5"
    },
    {
      "mesh": 2,
      "name": ""
    },
    {
      "children": [
        10,
        11
      ],
      "name": "Cube.001_6"
    },
    {
      "mesh": 3,
      "name": ""
    },
    {
      "mesh": 4,
      "name": ""
    },
    {
      "children": [
        13,
        14,
        15
      ],
      "matrix": [
        1,
        0,
        0,
        0,
        0,
        1,
        0,
        0,
        0,
        0,
        1,
        0,
        0,
        0.20000000298023224,
        0,
        1
      ],
      "name": "Cube.002_7"
    },
    {
      "mesh": 5,
      "name": ""
    },
    {
      "mesh": 6,
      "name": ""
    },
    {
      "mesh": 7,
      "name": ""
    },
    {
      "children": [
        17
      ],
      "matrix": [
        1,
        0,
        0,
        0,
        0,
        1,
        0,
        0,
        0,
        0,
        1,
        0,
        0,
        0,
        0.12923827767372131,
        1
      ],
      "name": "Sphere_8"
    },
    {
      "mesh": 8,
      "name": ""
    },
    {
      "children": [
        19
      ],
      "matrix": [
        3,
        0,
        0,
        0,
        0,
        3,
        0,
        0,
        0,
        0,
        3,
        0,
        0,
        -1.4867510795593262,
        0,
        1
      ],
      "name": "Plane_9"
    },
    {
      "mesh": 9,
      "name": ""
    }
  ],
  "scene": 0,
  "scenes": [
    {
      "name": "OSG_Scene",
      "nodes": [
        0
      ]
    }
  ]
}

