{"asset":{"version":"2.0","generator":"VECTARY"},"nodes":[{"translation":[0,7.888609052210118e-34,-3.996802888650564e-18],"scale":[0.1,0.1,0.1],"rotation":[-0.7071067811865475,0,0,0.7071067811865476],"name":"Group","children":[1,2,3,4]},{"translation":[-0.08656813059250214,0.11250838118270903,0.5206898799142871],"scale":[12.520288320983921,12.206130704759232,12.59748588122583],"rotation":[-1.6081226574977766e-16,0,0,1],"name":"body","mesh":0},{"translation":[-0.08656813059250214,0.11250838118270903,0.5206898799142871],"scale":[12.520288320983921,12.206130704759232,12.59748588122583],"rotation":[-1.6081226574977766e-16,0,0,1],"name":"pants","mesh":1},{"translation":[-0.08656813059250214,0.11250838118270903,0.5206898799142871],"scale":[12.520288320983921,12.206130704759232,12.59748588122583],"rotation":[-1.6081226574977766e-16,0,0,1],"name":"shirt","mesh":2},{"translation":[-0.08656813059250214,0.11250838118270903,0.5206898799142871],"scale":[12.520288320983921,12.206130704759232,12.59748588122583],"rotation":[-1.6081226574977766e-16,0,0,1],"name":"Shoes","mesh":3},{"translation":[2.18093888796826,7.874067653974406,5.6969272141922325],"scale":[1,1,1],"rotation":[-0.432665883448083,0.1736539860371134,0.08532663561469833,0.8805474954187245],"name":"Camera","camera":0}],"materials":[{"pbrMetallicRoughness":{"baseColorFactor":[0.5285622923686495,0.21987883866214658,0.07828045366758449,1],"metallicFactor":0,"roughnessFactor":1},"name":"Skin","emissiveFactor":[0,0,0],"alphaMode":"OPAQUE","doubleSided":false},{"pbrMetallicRoughness":{"baseColorFactor":[0.0021053514657499777,0.0018436942338914918,0.001956043048872841,1],"metallicFactor":0,"roughnessFactor":1},"name":"Pants","emissiveFactor":[0,0,0],"alphaMode":"OPAQUE","doubleSided":false},{"pbrMetallicRoughness":{"baseColorFactor":[0.057688386640654774,0.06874445043544097,0.13465543790684933,1],"metallicFactor":0,"roughnessFactor":1},"name":"Shirt","emissiveFactor":[0,0,0],"alphaMode":"OPAQUE","doubleSided":false},{"pbrMetallicRoughness":{"baseColorFactor":[0.00510710847229363,0.001679462692378788,0.0003930618635498724,1],"metallicFactor":0,"roughnessFactor":1},"name":"Shoes","emissiveFactor":[0,0,0],"alphaMode":"OPAQUE","doubleSided":false}],"meshes":[{"primitives":[{"mode":4,"attributes":{"POSITION":1,"NORMAL":2},"material":0,"indices":0}]},{"primitives":[{"mode":4,"attributes":{"POSITION":4,"NORMAL":5},"material":1,"indices":3}]},{"primitives":[{"mode":4,"attributes":{"POSITION":7,"NORMAL":8},"material":2,"indices":6}]},{"primitives":[{"mode":4,"attributes":{"POSITION":10,"NORMAL":11},"material":3,"indices":9}]}],"accessors":[{"bufferView":0,"byteOffset":0,"componentType":5125,"count":1284,"type":"SCALAR"},{"bufferView":1,"byteOffset":0,"componentType":5126,"count":228,"max":[0.9988724589347839,0.3511433005332947,3.7789502143859863],"min":[-0.985044002532959,-0.27892687916755676,1.8195931911468506],"type":"VEC3"},{"bufferView":2,"byteOffset":0,"componentType":5126,"count":228,"type":"VEC3"},{"bufferView":3,"byteOffset":0,"componentType":5125,"count":474,"type":"SCALAR"},{"bufferView":4,"byteOffset":0,"componentType":5126,"count":90,"max":[0.48507070541381836,0.25578877329826355,1.7879753112792969],"min":[-0.47436633706092834,-0.2543201148509979,0.11010225117206573],"type":"VEC3"},{"bufferView":5,"byteOffset":0,"componentType":5126,"count":90,"type":"VEC3"},{"bufferView":6,"byteOffset":0,"componentType":5125,"count":456,"type":"SCALAR"},{"bufferView":7,"byteOffset":0,"componentType":5126,"count":90,"max":[0.6335417628288269,0.2978699207305908,3.097454071044922],"min":[-0.6348689198493958,-0.2585277855396271,1.6223033666610718],"type":"VEC3"},{"bufferView":8,"byteOffset":0,"componentType":5126,"count":90,"type":"VEC3"},{"bufferView":9,"byteOffset":0,"componentType":5125,"count":450,"type":"SCALAR"},{"bufferView":10,"byteOffset":0,"componentType":5126,"count":84,"max":[0.4984971880912781,0.19951900839805603,0.16725945472717285],"min":[-0.48856714367866516,-0.3695780336856842,-0.04133284091949463],"type":"VEC3"},{"bufferView":11,"byteOffset":0,"componentType":5126,"count":84,"type":"VEC3"}],"bufferViews":[{"buffer":0,"byteOffset":0,"byteLength":5136,"target":34963},{"buffer":0,"byteOffset":5136,"byteLength":2736,"target":34962},{"buffer":0,"byteOffset":7872,"byteLength":2736,"target":34962},{"buffer":0,"byteOffset":10608,"byteLength":1896,"target":34963},{"buffer":0,"byteOffset":12504,"byteLength":1080,"target":34962},{"buffer":0,"byteOffset":13584,"byteLength":1080,"target":34962},{"buffer":0,"byteOffset":14664,"byteLength":1824,"target":34963},{"buffer":0,"byteOffset":16488,"byteLength":1080,"target":34962},{"buffer":0,"byteOffset":17568,"byteLength":1080,"target":34962},{"buffer":0,"byteOffset":18648,"byteLength":1800,"target":34963},{"buffer":0,"byteOffset":20448,"byteLength":1008,"target":34962},{"buffer":0,"byteOffset":21456,"byteLength":1008,"target":34962}],"cameras":[{"name":"Camera","type":"perspective","extras":{"targetDistance":10},"perspective":{"aspectRatio":0.8040770101925255,"yfov":0.6108652381980153,"zfar":400,"znear":0.04}}],"scene":0,"scenes":[{"nodes":[0,5],"name":"scene"}],"extensionsUsed":["KHR_texture_transform"],"buffers":[{"byteLength":22464,"uri":"scene.bin"}]}