{"asset":{"version":"2.0","generator":"VECTARY"},"nodes":[{"translation":[-0.0000013351440429687501,0.058205287498421965,-0.05986998081207275],"scale":[0.01,0.01,0.01],"rotation":[0,0,0,1],"name":"planes","mesh":0},{"translation":[0,0,0],"scale":[0.01,0.01,0.01],"rotation":[0,0,0,1],"name":"scaffolding","mesh":1},{"translation":[-0.4660342062007293,0.26797399258718896,0.22663179786658252],"scale":[1,1,1],"rotation":[-0.20098745059413345,-0.5236638365633441,-0.1286968018486664,0.8178125483100362],"name":"Camera","camera":0}],"materials":[{"pbrMetallicRoughness":{"baseColorFactor":[0.5668097348966382,1,0.2271365255051489,1],"metallicFactor":0,"roughnessFactor":0.7},"name":"Material","emissiveFactor":[0,0,0],"alphaMode":"OPAQUE","doubleSided":false},{"pbrMetallicRoughness":{"baseColorFactor":[1,1,1,1],"metallicFactor":0.3,"roughnessFactor":0.3},"name":"GeoDomeMat","emissiveFactor":[0,0,0],"alphaMode":"OPAQUE","doubleSided":false}],"meshes":[{"primitives":[{"mode":4,"attributes":{"POSITION":0,"NORMAL":1},"material":0}]},{"primitives":[{"mode":4,"attributes":{"POSITION":3,"NORMAL":4},"material":1,"indices":2}]}],"accessors":[{"bufferView":0,"byteOffset":0,"componentType":5126,"count":180,"max":[12,5.810908317565918,12.008476257324219],"min":[-12,-5.810908317565918,0],"type":"VEC3"},{"bufferView":1,"byteOffset":0,"componentType":5126,"count":180,"type":"VEC3"},{"bufferView":2,"byteOffset":0,"componentType":5125,"count":3168,"type":"SCALAR"},{"bufferView":3,"byteOffset":0,"componentType":5126,"count":2112,"max":[12.123432159423828,12.14045238494873,6.11113977432251],"min":[-12.123432159423828,2.2724877535296173e-15,-6.11113977432251],"type":"VEC3"},{"bufferView":4,"byteOffset":0,"componentType":5126,"count":2112,"type":"VEC3"}],"bufferViews":[{"buffer":0,"byteOffset":0,"byteLength":2160,"target":34962},{"buffer":0,"byteOffset":2160,"byteLength":2160,"target":34962},{"buffer":0,"byteOffset":4320,"byteLength":12672,"target":34963},{"buffer":0,"byteOffset":16992,"byteLength":25344,"target":34962},{"buffer":0,"byteOffset":42336,"byteLength":25344,"target":34962}],"cameras":[{"name":"Camera","type":"perspective","extras":{"targetDistance":0.5669516731403765},"perspective":{"aspectRatio":1.164605137963844,"yfov":0.6108652381980153,"zfar":41.50831441077539,"znear":0.003207432268474316}}],"scene":0,"scenes":[{"nodes":[0,1,2],"name":"stage"}],"extensionsUsed":["KHR_texture_transform"],"buffers":[{"byteLength":67680,"uri":"stage.bin"}]}